FILE "The Last Man Who Knew Everything꞉ The Life and Times of Enrico Fermi, Father of the Nuclear Age [B077DZWSS3].m4b" MP3
TRACK 1 AUDIO
  TITLE "Chapter 1"
  INDEX 01 0:00:00
TRACK 2 AUDIO
  TITLE "Chapter 2"
  INDEX 01 38:44:55
TRACK 3 AUDIO
  TITLE "Chapter 3"
  INDEX 01 82:30:33
TRACK 4 AUDIO
  TITLE "Chapter 4"
  INDEX 01 108:45:51
TRACK 5 AUDIO
  TITLE "Chapter 5"
  INDEX 01 141:10:30
TRACK 6 AUDIO
  TITLE "Chapter 6"
  INDEX 01 163:16:40
TRACK 7 AUDIO
  TITLE "Chapter 7"
  INDEX 01 180:07:37
TRACK 8 AUDIO
  TITLE "Chapter 8"
  INDEX 01 220:23:36
TRACK 9 AUDIO
  TITLE "Chapter 9"
  INDEX 01 256:03:25
TRACK 10 AUDIO
  TITLE "Chapter 10"
  INDEX 01 288:31:23
TRACK 11 AUDIO
  TITLE "Chapter 11"
  INDEX 01 333:09:41
TRACK 12 AUDIO
  TITLE "Chapter 12"
  INDEX 01 362:08:68
TRACK 13 AUDIO
  TITLE "Chapter 13"
  INDEX 01 382:18:15
TRACK 14 AUDIO
  TITLE "Chapter 14"
  INDEX 01 400:36:34
TRACK 15 AUDIO
  TITLE "Chapter 15"
  INDEX 01 424:41:08
TRACK 16 AUDIO
  TITLE "Chapter 16"
  INDEX 01 454:43:40
TRACK 17 AUDIO
  TITLE "Chapter 17"
  INDEX 01 478:25:53
TRACK 18 AUDIO
  TITLE "Chapter 18"
  INDEX 01 528:06:44
TRACK 19 AUDIO
  TITLE "Chapter 19"
  INDEX 01 556:37:36
TRACK 20 AUDIO
  TITLE "Chapter 20"
  INDEX 01 599:38:29
TRACK 21 AUDIO
  TITLE "Chapter 21"
  INDEX 01 655:56:46
TRACK 22 AUDIO
  TITLE "Chapter 22"
  INDEX 01 688:56:05
TRACK 23 AUDIO
  TITLE "Chapter 23"
  INDEX 01 753:19:16
TRACK 24 AUDIO
  TITLE "Chapter 24"
  INDEX 01 799:21:03
TRACK 25 AUDIO
  TITLE "Chapter 25"
  INDEX 01 823:29:62
TRACK 26 AUDIO
  TITLE "Chapter 26"
  INDEX 01 847:19:53
TRACK 27 AUDIO
  TITLE "Chapter 27"
  INDEX 01 862:09:41
TRACK 28 AUDIO
  TITLE "Chapter 28"
  INDEX 01 885:33:25
